HIERARCHY
ROOT Hips
{
	OFFSET 0.000000 0.000000 0.000000
	CHANNELS 6 Xposition Yposition Zposition Yrotation Xrotation Zrotation
	JOINT Chest
	{
		OFFSET 0.000000 -0.009281 11.569106
		CHANNELS 3 Yrotation Xrotation Zrotation
		JOINT Chest2
		{
			OFFSET -0.000000 0.016865 9.269641
			CHANNELS 3 Yrotation Xrotation Zrotation
			JOINT Chest3
			{
				OFFSET -0.000000 0.000001 8.374491
				CHANNELS 3 Yrotation Xrotation Zrotation
				JOINT Chest4
				{
					OFFSET -0.000000 0.000001 8.374493
					CHANNELS 3 Yrotation Xrotation Zrotation
					JOINT Neck
					{
						OFFSET -0.000000 0.000002 12.152554
						CHANNELS 3 Yrotation Xrotation Zrotation
						JOINT Head
						{
							OFFSET -0.000000 0.040101 7.802319
							CHANNELS 3 Yrotation Xrotation Zrotation
							End Site
							{
								OFFSET -0.000000 0.020947 14.853096
							}
						}
					}
					JOINT RightCollar
					{
						OFFSET 2.894404 0.000001 6.791374
						CHANNELS 3 Yrotation Xrotation Zrotation
						JOINT RightShoulder
						{
							OFFSET 13.574684 0.000001 0.000000
							CHANNELS 3 Yrotation Xrotation Zrotation
							JOINT RightElbow
							{
								OFFSET 23.923903 0.000002 0.000000
								CHANNELS 3 Yrotation Xrotation Zrotation
								JOINT RightWrist
								{
									OFFSET 19.846718 0.012767 0.000000
									CHANNELS 3 Yrotation Xrotation Zrotation
									End Site
									{
										OFFSET 14.973145 0.000001 0.000000
									}
								}
							}
						}
					}
					JOINT LeftCollar
					{
						OFFSET -2.894404 0.000001 6.791374
						CHANNELS 3 Yrotation Xrotation Zrotation
						JOINT LeftShoulder
						{
							OFFSET -13.574684 -0.000001 0.000000
							CHANNELS 3 Yrotation Xrotation Zrotation
							JOINT LeftElbow
							{
								OFFSET -23.923903 -0.000002 0.000000
								CHANNELS 3 Yrotation Xrotation Zrotation
								JOINT LeftWrist
								{
									OFFSET -19.846718 0.012763 0.000000
									CHANNELS 3 Yrotation Xrotation Zrotation
									End Site
									{
										OFFSET -14.973145 -0.000001 0.000000
									}
								}
							}
						}
					}
				}
			}
		}
	}
	JOINT RightHip
	{
		OFFSET 9.469263 0.004643 0.045487
		CHANNELS 3 Yrotation Xrotation Zrotation
		JOINT RightKnee
		{
			OFFSET 0.000000 0.002661 -40.478676
			CHANNELS 3 Yrotation Xrotation Zrotation
			JOINT RightAnkle
			{
				OFFSET 0.000000 0.049106 -35.224068
				CHANNELS 3 Yrotation Xrotation Zrotation
				JOINT RightToe
				{
					OFFSET -0.000001 12.539529 -6.151390
					CHANNELS 3 Yrotation Xrotation Zrotation
					End Site
					{
						OFFSET -0.000001 5.044994 -1.291870
					}
				}
			}
		}
	}
	JOINT LeftHip
	{
		OFFSET -9.469263 0.004641 0.045487
		CHANNELS 3 Yrotation Xrotation Zrotation
		JOINT LeftKnee
		{
			OFFSET 0.000000 0.002661 -40.478676
			CHANNELS 3 Yrotation Xrotation Zrotation
			JOINT LeftAnkle
			{
				OFFSET 0.000000 0.049106 -35.224068
				CHANNELS 3 Yrotation Xrotation Zrotation
				JOINT LeftToe
				{
					OFFSET -0.000001 12.539529 -6.151390
					CHANNELS 3 Yrotation Xrotation Zrotation
					End Site
					{
						OFFSET -0.000001 5.044994 -1.291870
					}
				}
			}
		}
	}
}
MOTION
Frames: 8
Frame Time: 0.016667
9.566896 7.276154 83.100319 -5.169945 -1.469557 -105.322507 -0.291023 -3.423193 1.576076 -0.114601 -1.522505 0.700545 -0.114602 -1.522505 0.700549 -0.084200 -1.142012 0.525095 3.961382 -24.040644 -10.435945 4.489450 -8.504883 -17.731895 9.785211 2.384489 -6.321612 66.089990 43.139898 29.895868 42.920424 37.355845 47.399986 7.693348 41.614379 6.143158 -8.940208 -4.588581 -5.226199 -55.095277 28.754526 -21.660570 -29.704035 18.356014 -34.208924 -31.422729 33.554360 -4.527797 -0.823169 -5.668036 -2.505857 1.935255 -3.667345 -10.726625 -0.600148 3.622752 2.106270 -0.017141 0.006805 0.003229 -0.646458 -6.857435 1.671611 0.453086 -1.330865 -0.812722 -0.737254 3.009064 0.060283 0.015934 -0.010783 -0.001970 
9.586423 7.268774 83.098366 -5.150758 -1.466306 -105.335963 -0.288471 -3.412792 1.576274 -0.114108 -1.518206 0.700673 -0.114108 -1.518206 0.700675 -0.083835 -1.138786 0.525192 3.925405 -23.982609 -10.311639 4.449108 -8.395458 -17.518260 9.788881 2.413626 -6.322090 65.999660 43.146797 29.846626 42.922930 37.378644 47.441015 7.722481 41.614317 6.148304 -8.946369 -4.565701 -5.234739 -55.181143 28.851938 -21.706213 -29.737978 18.469320 -34.236176 -31.346655 33.903550 -4.739949 -0.817847 -5.678264 -2.441399 1.936390 -3.629983 -10.739710 -0.608944 3.614775 2.056255 -0.010121 0.005570 0.003172 -0.644314 -6.865434 1.685142 0.449895 -1.308308 -0.803175 -0.740506 3.013017 0.054184 0.015246 -0.010466 -0.002704 
9.605170 7.260041 83.097061 -5.137280 -1.468213 -105.343230 -0.281576 -3.402856 1.575492 -0.111692 -1.513755 0.699889 -0.111692 -1.513755 0.699890 -0.082031 -1.135445 0.524609 3.884531 -23.929978 -10.184999 4.401368 -8.296434 -17.301648 9.787205 2.459002 -6.323336 65.900862 43.115129 29.795505 42.904858 37.426025 47.468678 7.697280 41.576680 6.138380 -8.961812 -4.544163 -5.245451 -55.260260 28.913021 -21.757383 -29.767266 18.620914 -34.248105 -31.397072 34.171341 -5.024568 -0.811085 -5.685254 -2.404091 1.940919 -3.614338 -10.724819 -0.626442 3.614503 2.005873 0.001595 0.007157 0.003989 -0.636413 -6.878647 1.704435 0.444549 -1.288802 -0.792301 -0.742945 3.019072 0.038662 0.014153 -0.010904 -0.003510 
9.623123 7.250447 83.096275 -5.129504 -1.468651 -105.342417 -0.275786 -3.388623 1.572011 -0.109991 -1.507249 0.697731 -0.109991 -1.507249 0.697732 -0.080768 -1.130564 0.522997 3.842814 -23.890651 -10.059130 4.353516 -8.222150 -17.086502 9.787300 2.454426 -6.310486 65.832068 43.124001 29.780632 42.891747 37.481930 47.471375 7.660660 41.547132 6.127967 -8.980206 -4.531839 -5.250265 -55.318648 28.895990 -21.794516 -29.805634 18.831885 -34.304410 -31.439378 34.371807 -5.235904 -0.809255 -5.690172 -2.397257 1.952629 -3.616595 -10.679023 -0.653237 3.622092 1.957093 0.014508 0.010507 0.004471 -0.628988 -6.893603 1.734619 0.439416 -1.274947 -0.796632 -0.745930 3.027881 0.019132 0.012593 -0.011606 -0.003847 
9.638943 7.241490 83.096191 -5.127134 -1.470889 -105.341823 -0.274478 -3.374497 1.570973 -0.109846 -1.501206 0.696731 -0.109846 -1.501206 0.696731 -0.080669 -1.126032 0.522251 3.804797 -23.859359 -9.933525 4.313192 -8.162333 -16.870835 9.786567 2.439543 -6.306393 65.825497 43.154334 29.794665 42.904472 37.544348 47.480965 7.634780 41.485049 6.079634 -9.003011 -4.526742 -5.260161 -55.347301 28.868730 -21.814731 -29.856861 18.999428 -34.392581 -31.383230 34.490816 -5.374198 -0.812449 -5.690612 -2.391591 1.968657 -3.635471 -10.627302 -0.682973 3.633869 1.932846 0.028056 0.014671 0.004698 -0.625377 -6.906644 1.765259 0.441067 -1.271756 -0.806359 -0.748149 3.039892 0.006616 0.008906 -0.011961 -0.004596 
9.652517 7.235401 83.096664 -5.130165 -1.471762 -105.347458 -0.279451 -3.360713 1.576141 -0.112454 -1.495381 0.698498 -0.112454 -1.495381 0.698500 -0.082627 -1.121666 0.523568 3.767650 -23.832603 -9.802653 4.276294 -8.110589 -16.645425 9.787522 2.434327 -6.318481 65.851418 43.164695 29.803134 42.934224 37.603794 47.511575 7.607387 41.423981 6.040724 -9.024582 -4.537036 -5.280122 -55.375393 28.895669 -21.838857 -29.870115 19.066535 -34.447909 -31.251886 34.596585 -5.469827 -0.817121 -5.688669 -2.378331 1.986564 -3.664650 -10.578140 -0.718243 3.649166 1.872420 0.040755 0.018285 0.004143 -0.631601 -6.921186 1.795110 0.453229 -1.273141 -0.814489 -0.752294 3.053471 0.000111 0.004269 -0.011906 -0.005061 
9.665833 7.227748 83.097115 -5.138249 -1.472968 -105.351064 -0.287003 -3.350761 1.583311 -0.116727 -1.490676 0.701522 -0.116727 -1.490676 0.701523 -0.085829 -1.118143 0.525828 3.731861 -23.798805 -9.669985 4.241661 -8.045645 -16.416477 9.797134 2.437648 -6.332003 65.840319 43.150403 29.764643 42.959837 37.649307 47.553973 7.559847 41.411334 6.055626 -9.038645 -4.550705 -5.300048 -55.417109 28.943398 -21.878520 -29.829133 19.083912 -34.458035 -31.162489 34.724542 -5.528724 -0.822314 -5.693917 -2.361563 2.001400 -3.691348 -10.551430 -0.748412 3.665973 1.834811 0.050282 0.019436 0.004727 -0.636911 -6.939820 1.815156 0.463286 -1.276090 -0.820110 -0.753264 3.068517 -0.002152 -0.001572 -0.012219 -0.005338 
9.679573 7.219310 83.097031 -5.147154 -1.474606 -105.359568 -0.289544 -3.339388 1.591388 -0.118537 -1.485315 0.705102 -0.118537 -1.485315 0.705103 -0.087184 -1.114125 0.528511 3.685828 -23.755823 -9.540858 4.187035 -7.964946 -16.196624 9.799500 2.421870 -6.335783 65.812868 43.152572 29.724464 42.954708 37.666144 47.557637 7.458096 41.476887 6.070630 -9.067144 -4.533011 -5.307845 -55.455371 28.966050 -21.894660 -29.803332 19.123329 -34.462051 -31.114111 34.766172 -5.555786 -0.825593 -5.698085 -2.343507 2.015450 -3.722859 -10.530191 -0.774615 3.686478 1.804836 0.054257 0.019727 0.004527 -0.638815 -6.959238 1.834528 0.467350 -1.281967 -0.819560 -0.748607 3.087315 -0.005932 -0.009049 -0.013118 -0.005017 
